<svg width="204" height="200" viewBox="0 0 204 200" fill="none" xmlns="http://www.w3.org/2000/svg">
<path d="M203.272 84.9824C203.272 38.0191 164.386 -0.513967 117.54 0.00518515C75.9288 0.476416 41.5236 31.0026 34.8991 70.9413L0.478025 89.0597C0.313446 89.1386 0.178927 89.269 0.094777 89.4313C0.0106272 89.5935 -0.0185855 89.7788 0.0115494 89.9592C0.0416842 90.1395 0.129531 90.3052 0.261826 90.4311C0.394122 90.557 0.563686 90.6363 0.744918 90.6571L34.3972 95.6011C35.8729 107.486 39.8527 118.921 46.0728 129.146L20.471 175.491C20.3862 175.647 20.3526 175.825 20.3753 176.002C20.3979 176.178 20.4755 176.342 20.597 176.472C20.7185 176.601 20.8777 176.689 21.0518 176.722C21.226 176.755 21.4061 176.732 21.5665 176.657L68.8223 153.838C77.1287 159.871 86.4615 164.336 96.364 167.016L96.1768 199.152C96.1748 199.329 96.229 199.503 96.3315 199.647C96.434 199.792 96.5797 199.9 96.7475 199.957C96.9152 200.013 97.0965 200.014 97.2653 199.961C97.434 199.908 97.5815 199.802 97.6865 199.659L119.858 169.932C166.051 169.221 203.272 131.462 203.272 84.9824Z" fill="#001D3C"/>
<path d="M156.917 41.6891L153.447 40.2235L157.032 39.1413L158.845 31.6176L160.159 39.2611L163.625 40.535L160.131 41.8169L158.538 49.4484L156.917 41.6891Z" fill="white"/>
<path d="M86.0189 144.521L82.5533 143.056L86.1384 141.973L87.9509 134.45L89.2655 142.093L92.7271 143.367L89.2376 144.649L87.6402 152.28L86.0189 144.521Z" fill="white"/>
<path d="M105.271 24.9524C106.503 24.9524 107.502 23.9512 107.502 22.7161C107.502 21.481 106.503 20.4797 105.271 20.4797C104.039 20.4797 103.04 21.481 103.04 22.7161C103.04 23.9512 104.039 24.9524 105.271 24.9524Z" fill="#32B7E0"/>
<path d="M168.019 132.213C168.019 132.656 168.15 133.089 168.395 133.458C168.641 133.826 168.99 134.113 169.398 134.283C169.806 134.453 170.256 134.497 170.689 134.411C171.123 134.324 171.521 134.111 171.833 133.797C172.146 133.484 172.359 133.085 172.445 132.65C172.531 132.216 172.487 131.765 172.318 131.356C172.149 130.947 171.862 130.597 171.495 130.35C171.127 130.104 170.695 129.973 170.253 129.973C169.661 129.973 169.092 130.209 168.673 130.629C168.254 131.049 168.019 131.619 168.019 132.213Z" fill="#32B7E0"/>
<path d="M179.985 117.553C179.985 117.996 180.116 118.429 180.362 118.798C180.607 119.166 180.956 119.453 181.364 119.623C181.773 119.793 182.222 119.837 182.656 119.75C183.089 119.664 183.487 119.451 183.8 119.137C184.112 118.824 184.325 118.425 184.411 117.99C184.498 117.556 184.453 117.105 184.284 116.696C184.115 116.287 183.829 115.937 183.461 115.69C183.094 115.444 182.662 115.313 182.22 115.313C181.926 115.313 181.636 115.371 181.364 115.483C181.093 115.596 180.847 115.761 180.639 115.969C180.432 116.177 180.267 116.424 180.155 116.696C180.043 116.968 179.985 117.259 179.985 117.553Z" fill="#FEFEFE"/>
<path d="M63.365 100.397C63.3642 100.841 63.4947 101.274 63.7399 101.643C63.9852 102.012 64.3341 102.3 64.7427 102.47C65.1512 102.64 65.6008 102.685 66.0347 102.599C66.4685 102.512 66.8671 102.299 67.1799 101.985C67.4926 101.672 67.7056 101.272 67.7917 100.837C67.8778 100.402 67.8332 99.9516 67.6635 99.542C67.4939 99.1325 67.2068 98.7827 66.8387 98.5368C66.4706 98.2909 66.038 98.1601 65.5957 98.1609C65.0041 98.1609 64.4367 98.3965 64.0183 98.8159C63.6 99.2353 63.365 99.8041 63.365 100.397Z" fill="#FEFEFE"/>
<path d="M65.6236 54.8117C65.4862 54.9464 65.3019 55.0223 65.1097 55.0233H54.6013C54.5061 55.0233 54.4119 55.0045 54.3239 54.968C54.2359 54.9315 54.156 54.8779 54.0887 54.8104C54.0214 54.743 53.968 54.6628 53.9315 54.5746C53.8951 54.4865 53.8763 54.392 53.8763 54.2965C53.8763 54.2011 53.8951 54.1066 53.9315 54.0184C53.968 53.9302 54.0214 53.8501 54.0887 53.7826C54.156 53.7151 54.2359 53.6616 54.3239 53.625C54.4119 53.5885 54.5061 53.5697 54.6013 53.5697H65.1097C65.2065 53.5702 65.3022 53.59 65.3912 53.628C65.4802 53.6659 65.5608 53.7213 65.6283 53.7908C65.6958 53.8603 65.7488 53.9426 65.7842 54.0328C65.8197 54.1231 65.8368 54.2195 65.8347 54.3165C65.8286 54.5022 65.7533 54.6789 65.6236 54.8117Z" fill="#01A4CB"/>
<path d="M60.3654 60.0791C60.2638 60.1798 60.1348 60.2483 59.9945 60.2757C59.8542 60.3032 59.709 60.2885 59.577 60.2334C59.4451 60.1784 59.3323 60.0854 59.2528 59.9663C59.1734 59.8472 59.1309 59.7072 59.1306 59.5639V49.0291C59.1306 48.9337 59.1493 48.8392 59.1857 48.751C59.2222 48.6628 59.2756 48.5827 59.3429 48.5152C59.4102 48.4477 59.4901 48.3942 59.5781 48.3576C59.6661 48.3211 59.7603 48.3023 59.8555 48.3023C59.9508 48.3023 60.045 48.3211 60.133 48.3576C60.2209 48.3942 60.3009 48.4477 60.3682 48.5152C60.4355 48.5827 60.4889 48.6628 60.5253 48.751C60.5618 48.8392 60.5805 48.9337 60.5805 49.0291V59.5639C60.5797 59.7574 60.5023 59.9427 60.3654 60.0791Z" fill="#01A4CB"/>
<path d="M180.638 96.3678C180.543 96.3685 180.449 96.3501 180.362 96.3137C180.274 96.2774 180.195 96.2238 180.128 96.1561L172.695 88.7083C172.559 88.5722 172.482 88.3874 172.482 88.1946C172.481 88.0017 172.557 87.8166 172.693 87.68C172.829 87.5433 173.013 87.4664 173.206 87.466C173.398 87.4656 173.583 87.5419 173.719 87.678L181.152 95.1298C181.288 95.266 181.364 95.4506 181.364 95.643C181.364 95.8353 181.288 96.0199 181.152 96.1561C181.085 96.2243 181.005 96.2781 180.917 96.3145C180.828 96.3509 180.734 96.369 180.638 96.3678Z" fill="#FCBB03"/>
<path d="M173.209 96.3678C173.066 96.3675 172.926 96.3248 172.808 96.2452C172.689 96.1656 172.596 96.0525 172.541 95.9202C172.486 95.7879 172.472 95.6423 172.499 95.5017C172.526 95.361 172.595 95.2317 172.695 95.1298L180.128 87.678C180.265 87.5419 180.449 87.4656 180.642 87.466C180.834 87.4664 181.018 87.5433 181.154 87.68C181.29 87.8166 181.366 88.0017 181.365 88.1946C181.365 88.3874 181.288 88.5722 181.152 88.7083L173.707 96.1561C173.575 96.2899 173.396 96.366 173.209 96.3678Z" fill="#FCBB03"/>
<path d="M108.637 91.565L69.365 127.364C69.2836 127.439 69.2776 127.565 69.3516 127.646L69.8045 128.146C69.8785 128.227 70.0045 128.233 70.0858 128.159L109.358 92.3598C109.439 92.2856 109.445 92.1593 109.371 92.0777L108.918 91.5784C108.844 91.4968 108.718 91.4908 108.637 91.565Z" fill="white"/>
<path d="M133.569 108.255L115.035 147.544C115.01 147.598 115.032 147.663 115.086 147.688L115.86 148.055C115.914 148.081 115.978 148.058 116.004 148.004L134.537 108.715C134.563 108.661 134.54 108.596 134.486 108.571L133.712 108.204C133.658 108.179 133.594 108.202 133.569 108.255Z" fill="white"/>
<path d="M91.1774 66.0744L50.008 76.1739C49.9011 76.2001 49.8357 76.3081 49.8619 76.4153L50.0219 77.0708C50.048 77.1779 50.1558 77.2435 50.2627 77.2173L91.4321 67.1179C91.5389 67.0917 91.6044 66.9836 91.5782 66.8765L91.4182 66.2209C91.3921 66.1138 91.2842 66.0482 91.1774 66.0744Z" fill="white"/>
<path d="M53.8724 77.1672C53.8724 77.8346 53.675 78.487 53.3051 79.0419C52.9352 79.5968 52.4095 80.0294 51.7945 80.2848C51.1794 80.5402 50.5026 80.607 49.8497 80.4768C49.1967 80.3466 48.597 80.0252 48.1262 79.5533C47.6555 79.0813 47.3349 78.4801 47.205 77.8255C47.0751 77.1709 47.1418 76.4924 47.3965 75.8758C47.6513 75.2592 48.0827 74.7322 48.6363 74.3614C49.1898 73.9906 49.8406 73.7927 50.5064 73.7927C51.3991 73.7927 52.2552 74.1482 52.8865 74.781C53.5177 75.4139 53.8724 76.2722 53.8724 77.1672Z" fill="#FCBB03"/>
<path d="M119.659 146.69C119.659 147.357 119.46 148.009 119.09 148.563C118.72 149.118 118.194 149.55 117.579 149.804C116.964 150.059 116.287 150.125 115.634 149.995C114.981 149.864 114.382 149.542 113.912 149.07C113.441 148.598 113.121 147.997 112.992 147.342C112.862 146.688 112.929 146.01 113.184 145.393C113.439 144.777 113.87 144.25 114.424 143.88C114.977 143.509 115.628 143.311 116.293 143.311C116.736 143.311 117.174 143.399 117.582 143.568C117.991 143.738 118.362 143.987 118.675 144.301C118.987 144.615 119.235 144.987 119.404 145.397C119.573 145.807 119.66 146.246 119.659 146.69Z" fill="#FCBB03"/>
<path d="M70.1289 131.187C71.9879 131.187 73.4949 129.676 73.4949 127.812C73.4949 125.949 71.9879 124.438 70.1289 124.438C68.2699 124.438 66.7628 125.949 66.7628 127.812C66.7628 129.676 68.2699 131.187 70.1289 131.187Z" fill="#FCBB03"/>
<path d="M89.8949 108.843L82.6848 67.7026L106.797 43.5181L114.011 84.6549L89.8949 108.843Z" fill="url(#paint0_linear)"/>
<path d="M89.8948 108.843L130.936 116.048L155.044 91.8631L114.011 84.6549L89.8948 108.843Z" fill="url(#paint1_linear)"/>
<path d="M147.862 50.7184L106.884 43.4303L114.17 84.4753L155.132 91.7753L147.862 50.7184Z" fill="url(#paint2_linear)"/>
<defs>
<linearGradient id="paint0_linear" x1="86.2091" y1="64.057" x2="110.398" y2="88.1682" gradientUnits="userSpaceOnUse">
<stop stop-color="#C8D3D7"/>
<stop offset="0.1" stop-color="#BECFD7"/>
<stop offset="0.28" stop-color="#A2C5D6"/>
<stop offset="0.51" stop-color="#75B5D4"/>
<stop offset="0.78" stop-color="#389FD3"/>
<stop offset="1" stop-color="#028CD1"/>
</linearGradient>
<linearGradient id="paint1_linear" x1="-55859.2" y1="-86494.6" x2="-54330.8" y2="-91181.3" gradientUnits="userSpaceOnUse">
<stop stop-color="#C8D3D7"/>
<stop offset="0.1" stop-color="#BECFD7"/>
<stop offset="0.28" stop-color="#A2C5D6"/>
<stop offset="0.51" stop-color="#75B5D4"/>
<stop offset="0.78" stop-color="#389FD3"/>
<stop offset="1" stop-color="#028CD1"/>
</linearGradient>
<linearGradient id="paint2_linear" x1="66114.4" y1="-125717" x2="70523.5" y2="-127721" gradientUnits="userSpaceOnUse">
<stop stop-color="#C8D3D7"/>
<stop offset="0.1" stop-color="#BECFD7"/>
<stop offset="0.28" stop-color="#A2C5D6"/>
<stop offset="0.51" stop-color="#75B5D4"/>
<stop offset="0.78" stop-color="#389FD3"/>
<stop offset="1" stop-color="#028CD1"/>
</linearGradient>
</defs>
</svg>
