<svg width="204" height="201" viewBox="0 0 204 201" fill="none" xmlns="http://www.w3.org/2000/svg">
<path d="M203.741 85.1314C203.779 63.7866 195.783 43.2091 181.343 27.4901C166.903 11.771 147.076 2.06176 125.805 0.292578C104.533 -1.47661 83.3752 4.82387 66.5368 17.9414C49.6983 31.0589 38.4129 50.0327 34.9243 71.0905L0.434505 89.213C0.280068 89.3005 0.156617 89.4338 0.0812 89.5946C0.00578335 89.7552 -0.0178783 89.9354 0.0134825 90.1101C0.0448434 90.2849 0.12968 90.4455 0.256276 90.57C0.382872 90.6944 0.544982 90.7765 0.720219 90.8048L34.4345 95.7436C35.9018 107.635 39.8959 119.074 46.1488 129.295L20.3937 175.662C20.3112 175.819 20.2796 175.998 20.3032 176.174C20.3268 176.35 20.4045 176.514 20.5254 176.644C20.6464 176.774 20.8047 176.863 20.9785 176.899C21.1523 176.935 21.333 176.917 21.4957 176.846L68.9651 153.988C77.284 160.025 86.6343 164.492 96.557 167.172V199.295C96.5618 199.468 96.6192 199.636 96.7214 199.776C96.8237 199.916 96.966 200.022 97.1296 200.079C97.2932 200.137 97.4704 200.143 97.6378 200.098C97.8052 200.052 97.9549 199.957 98.0672 199.825L120.271 170.07C142.543 169.685 163.772 160.566 179.384 144.679C194.997 128.791 203.744 107.406 203.741 85.1314Z" fill="#FF613C"/>
<path d="M157.251 41.8252L153.781 40.3558L157.373 39.2946L159.21 31.7844L160.516 39.417L163.986 40.6823L160.475 41.9476L158.883 49.5803L157.251 41.8252Z" fill="white"/>
<path d="M86.1897 144.682L82.7203 143.213L86.3121 142.111L88.1081 134.601L89.455 142.233L92.9244 143.499L89.4142 144.805L87.8223 152.437L86.1897 144.682Z" fill="white"/>
<path d="M105.496 25.0905C106.736 25.0905 107.741 24.0855 107.741 22.8456C107.741 21.6058 106.736 20.6007 105.496 20.6007C104.256 20.6007 103.251 21.6058 103.251 22.8456C103.251 24.0855 104.256 25.0905 105.496 25.0905Z" fill="#32B7E0"/>
<path d="M168.394 132.356C168.394 132.8 168.525 133.234 168.772 133.603C169.019 133.972 169.369 134.26 169.78 134.43C170.19 134.6 170.641 134.644 171.077 134.558C171.512 134.471 171.912 134.257 172.226 133.943C172.54 133.629 172.754 133.229 172.84 132.794C172.927 132.358 172.883 131.907 172.713 131.497C172.543 131.087 172.255 130.736 171.886 130.489C171.517 130.243 171.083 130.111 170.639 130.111C170.043 130.111 169.472 130.347 169.051 130.768C168.63 131.189 168.394 131.76 168.394 132.356Z" fill="#32B7E0"/>
<path d="M180.394 117.703C180.394 118.298 180.63 118.869 181.051 119.29C181.472 119.711 182.043 119.948 182.639 119.948C183.234 119.948 183.805 119.711 184.226 119.29C184.647 118.869 184.884 118.298 184.884 117.703C184.884 117.107 184.647 116.536 184.226 116.115C183.805 115.694 183.234 115.458 182.639 115.458C182.043 115.458 181.472 115.694 181.051 116.115C180.63 116.536 180.394 117.107 180.394 117.703Z" fill="#FEFEFE"/>
<path d="M65.7406 54.9681C65.5959 55.1008 65.4063 55.1737 65.2099 55.1721H54.6793C54.4845 55.1721 54.2976 55.0947 54.1598 54.957C54.022 54.8192 53.9446 54.6323 53.9446 54.4375C53.9446 54.2426 54.022 54.0557 54.1598 53.9179C54.2976 53.7802 54.4845 53.7028 54.6793 53.7028H65.2916C65.4864 53.7028 65.6733 53.7802 65.8111 53.9179C65.9489 54.0557 66.0263 54.2426 66.0263 54.4375C65.9984 54.6431 65.8969 54.8316 65.7406 54.9681Z" fill="#01A4CB"/>
<path d="M60.4754 60.2334C60.304 60.2958 60.1162 60.2958 59.9448 60.2334C59.7571 60.223 59.5805 60.141 59.4515 60.0043C59.3224 59.8676 59.2506 59.6867 59.2509 59.4987V49.1314C59.2506 48.9434 59.3224 48.7624 59.4515 48.6258C59.5805 48.4891 59.7571 48.4071 59.9448 48.3967C60.1396 48.3967 60.3265 48.4741 60.4643 48.6119C60.6021 48.7496 60.6795 48.9365 60.6795 49.1314V59.662C60.6856 59.766 60.6707 59.8703 60.6357 59.9685C60.6006 60.0667 60.5461 60.1568 60.4754 60.2334Z" fill="#01A4CB"/>
<path d="M181.047 96.519C180.852 96.5134 180.665 96.4414 180.516 96.315L173.088 88.8456C172.992 88.7042 172.948 88.5338 172.964 88.3637C172.98 88.1936 173.055 88.0345 173.176 87.9137C173.297 87.7929 173.456 87.718 173.626 87.7018C173.796 87.6857 173.967 87.7293 174.108 87.8252L181.577 95.2537C181.712 95.3975 181.787 95.5872 181.787 95.7843C181.787 95.9815 181.712 96.1712 181.577 96.315C181.429 96.4414 181.242 96.5134 181.047 96.519Z" fill="#FCBB03"/>
<path d="M173.577 96.5192C173.394 96.5145 173.22 96.4418 173.088 96.3151C172.953 96.1713 172.878 95.9816 172.878 95.7845C172.878 95.5874 172.953 95.3976 173.088 95.2539L180.516 87.8253C180.66 87.6904 180.85 87.6154 181.047 87.6154C181.244 87.6154 181.434 87.6904 181.577 87.8253C181.71 87.9623 181.783 88.1452 181.783 88.3355C181.783 88.5258 181.71 88.7087 181.577 88.8457L174.108 96.3151C173.963 96.4478 173.774 96.5208 173.577 96.5192Z" fill="#FCBB03"/>
<path d="M112.542 91.6L72.9512 127.599C72.9346 127.614 72.9333 127.64 72.9485 127.657L73.6075 128.382C73.6227 128.398 73.6485 128.4 73.6652 128.384L113.256 92.3852C113.272 92.37 113.273 92.3442 113.258 92.3275L112.599 91.6028C112.584 91.5861 112.558 91.5849 112.542 91.6Z" fill="white"/>
<path d="M137.486 108.366L118.849 147.773C118.84 147.793 118.848 147.818 118.869 147.827L119.754 148.246C119.775 148.256 119.799 148.247 119.809 148.227L138.445 108.819C138.455 108.799 138.446 108.775 138.425 108.765L137.54 108.346C137.52 108.337 137.495 108.345 137.486 108.366Z" fill="white"/>
<path d="M95.1174 66.1826L53.5281 76.3594C53.5062 76.3648 53.4928 76.3869 53.4982 76.4088L53.731 77.3603C53.7364 77.3822 53.7585 77.3956 53.7804 77.3903L95.3697 67.2134C95.3915 67.2081 95.405 67.186 95.3996 67.1641L95.1668 66.2125C95.1614 66.1907 95.1393 66.1772 95.1174 66.1826Z" fill="white"/>
<path d="M57.5774 77.2946C57.5855 77.9663 57.3937 78.6253 57.0264 79.1878C56.6591 79.7502 56.1329 80.1908 55.5146 80.4535C54.8964 80.7161 54.214 80.7891 53.5541 80.663C52.8943 80.5369 52.2868 80.2175 51.809 79.7454C51.3311 79.2733 51.0044 78.6698 50.8703 78.0115C50.7362 77.3533 50.8009 76.67 51.0561 76.0486C51.3112 75.4272 51.7454 74.8957 52.3034 74.5216C52.8613 74.1475 53.5179 73.9477 54.1897 73.9477C55.0811 73.9476 55.9367 74.2989 56.5709 74.9255C57.205 75.552 57.5667 76.4032 57.5774 77.2946Z" fill="#FCBB03"/>
<path d="M123.496 146.846C123.496 147.517 123.296 148.174 122.922 148.732C122.548 149.29 122.016 149.724 121.395 149.979C120.773 150.234 120.09 150.299 119.432 150.165C118.774 150.031 118.17 149.704 117.698 149.226C117.226 148.748 116.906 148.141 116.78 147.481C116.654 146.821 116.727 146.139 116.99 145.521C117.253 144.902 117.693 144.376 118.256 144.009C118.818 143.642 119.477 143.45 120.149 143.458C120.592 143.458 121.03 143.546 121.439 143.716C121.848 143.887 122.219 144.137 122.53 144.453C122.841 144.768 123.087 145.141 123.253 145.552C123.418 145.963 123.501 146.403 123.496 146.846Z" fill="#FCBB03"/>
<path d="M73.8632 131.336C75.7342 131.336 77.2509 129.819 77.2509 127.948C77.2509 126.077 75.7342 124.56 73.8632 124.56C71.9922 124.56 70.4754 126.077 70.4754 127.948C70.4754 129.819 71.9922 131.336 73.8632 131.336Z" fill="#FCBB03"/>
<path d="M93.659 108.968L86.4345 67.8661L110.598 43.662L117.863 84.8049L93.659 108.968Z" fill="url(#paint0_linear)"/>
<path d="M93.6591 108.968L134.802 116.193L158.965 91.9884L117.863 84.8047L93.6591 108.968Z" fill="url(#paint1_linear)"/>
<path d="M151.781 50.8456L110.72 43.5803L117.986 84.6007L159.088 91.9068L151.781 50.8456Z" fill="url(#paint2_linear)"/>
<defs>
<linearGradient id="paint0_linear" x1="90.0034" y1="64.1981" x2="114.198" y2="88.3756" gradientUnits="userSpaceOnUse">
<stop stop-color="#C8D3D7"/>
<stop offset="0.1" stop-color="#BECFD7"/>
<stop offset="0.28" stop-color="#A2C5D6"/>
<stop offset="0.51" stop-color="#75B5D4"/>
<stop offset="0.78" stop-color="#389FD3"/>
<stop offset="1" stop-color="#028CD1"/>
</linearGradient>
<linearGradient id="paint1_linear" x1="5534.96" y1="-6931.93" x2="5684.1" y2="-7390.75" gradientUnits="userSpaceOnUse">
<stop stop-color="#C8D3D7"/>
<stop offset="0.1" stop-color="#BECFD7"/>
<stop offset="0.28" stop-color="#A2C5D6"/>
<stop offset="0.51" stop-color="#75B5D4"/>
<stop offset="0.78" stop-color="#389FD3"/>
<stop offset="1" stop-color="#028CD1"/>
</linearGradient>
<linearGradient id="paint2_linear" x1="9885.03" y1="-4407.96" x2="10316.9" y2="-4604.98" gradientUnits="userSpaceOnUse">
<stop stop-color="#C8D3D7"/>
<stop offset="0.1" stop-color="#BECFD7"/>
<stop offset="0.28" stop-color="#A2C5D6"/>
<stop offset="0.51" stop-color="#75B5D4"/>
<stop offset="0.78" stop-color="#389FD3"/>
<stop offset="1" stop-color="#028CD1"/>
</linearGradient>
</defs>
</svg>
