<svg width="300" height="300" viewBox="0 0 300 300" fill="none" xmlns="http://www.w3.org/2000/svg">
<path d="M58.9207 254.664L59.7476 254.682V263.025C61.2298 263.025 62.7121 263.025 64.1944 263.025V263.852H59.7476H58.9207V254.664ZM66.7282 260.783H66.8385H67.1509C67.4326 260.783 67.7389 260.783 68.0696 260.783C68.4004 260.783 68.7066 260.783 68.9884 260.783H69.6499L69.411 261.683H70.3665L69.6499 263.87L68.676 263.888L69.411 261.683H69.3007C69.2517 261.683 69.2027 261.683 69.1537 261.683C69.1047 261.683 69.0496 261.683 68.9884 261.683C68.7066 261.683 68.4004 261.683 68.0696 261.683C67.8981 261.683 67.7327 261.683 67.5735 261.683C67.4265 261.683 67.2856 261.683 67.1509 261.683C67.0774 261.683 67.0161 261.683 66.9671 261.683C66.9181 261.683 66.8752 261.683 66.8385 261.683H66.7282V260.783ZM69.6499 260.783L71.6344 254.682H72.4429L75.438 263.87H74.4825L72.0386 256.336L70.5686 260.801L69.6499 260.783ZM80.8748 254.664H81.7017L81.7201 261.996L80.8748 261.977V254.664ZM85.5788 262.198L85.5972 254.664H86.369L86.4057 262.198V262.216C86.4057 262.694 86.2648 263.092 85.9831 263.411C85.7136 263.717 85.3155 263.864 84.7887 263.852C84.4335 263.852 84.0108 263.852 83.5208 263.852C83.0431 263.852 82.7001 263.852 82.4918 263.852C82.2958 263.852 82.1121 263.821 81.9406 263.76C81.7813 263.698 81.6527 263.631 81.5547 263.558C81.4567 263.472 81.371 263.386 81.2975 263.3C81.224 263.215 81.175 263.147 81.1505 263.098L81.0953 263.006C82.8838 263.019 84.0843 263.025 84.6968 263.025C85.2848 263.025 85.5788 262.78 85.5788 262.29C85.5788 262.253 85.5788 262.222 85.5788 262.198ZM91.4158 254.682H92.1875L96.1198 261.941V254.682H96.9834L96.965 263.852H96.2484L92.261 256.502V263.87L91.4158 263.852V254.682ZM107.277 263.025C107.277 263.049 107.265 263.08 107.24 263.117C107.216 263.153 107.167 263.221 107.093 263.319C107.02 263.417 106.934 263.502 106.836 263.576C106.738 263.649 106.603 263.717 106.432 263.778C106.272 263.839 106.101 263.87 105.917 263.87C105.709 263.87 105.366 263.87 104.888 263.87C104.41 263.87 104 263.876 103.657 263.888C103.118 263.888 102.714 263.741 102.444 263.447C102.175 263.153 102.034 262.761 102.022 262.271C102.022 262.259 102.028 262.241 102.04 262.216C102.028 260.244 102.016 258.278 102.003 256.318C102.003 255.84 102.138 255.448 102.408 255.142C102.689 254.836 103.094 254.689 103.62 254.701C103.841 254.701 104.227 254.701 104.778 254.701C105.329 254.689 105.709 254.682 105.917 254.682C106.113 254.682 106.291 254.713 106.45 254.774C106.609 254.836 106.738 254.909 106.836 254.995C106.934 255.081 107.02 255.166 107.093 255.252C107.167 255.326 107.216 255.393 107.24 255.454L107.277 255.546C105.513 255.546 104.319 255.54 103.694 255.528C103.155 255.528 102.873 255.754 102.849 256.208L102.867 262.253C102.867 262.277 102.867 262.296 102.867 262.308C102.867 262.798 103.155 263.043 103.731 263.043L107.277 263.025ZM117.191 254.664H118.036V263.852H117.191C117.191 262.467 117.191 261.083 117.191 259.699C115.905 259.699 114.619 259.699 113.332 259.699C113.332 261.083 113.332 262.473 113.332 263.87H112.487V254.682L113.314 254.664C113.314 256.061 113.314 257.457 113.314 258.854C114.613 258.854 115.905 258.854 117.191 258.854V254.664ZM128.744 254.664L129.681 254.682L131.482 258.247L133.32 254.682H134.275L129.516 263.87H128.597L131.023 259.148L128.744 254.664ZM144.896 255.528C143.12 255.528 141.925 255.528 141.313 255.528C140.762 255.528 140.474 255.754 140.449 256.208L140.468 262.014H139.641L139.604 256.299C139.604 255.834 139.739 255.448 140.008 255.142C140.29 254.836 140.694 254.682 141.221 254.682C141.442 254.682 141.827 254.682 142.379 254.682C142.93 254.682 143.31 254.682 143.518 254.682C143.714 254.682 143.892 254.713 144.051 254.774C144.222 254.836 144.357 254.909 144.455 254.995C144.553 255.068 144.633 255.148 144.694 255.234C144.767 255.319 144.816 255.393 144.841 255.454L144.896 255.528ZM139.843 263.025C141.619 263.025 142.82 263.031 143.444 263.043C144.02 263.043 144.314 262.798 144.326 262.308C144.326 262.271 144.326 262.241 144.326 262.216V256.465H145.135L145.153 262.216V262.235C145.153 262.712 145.012 263.11 144.731 263.429C144.461 263.735 144.057 263.882 143.518 263.87C143.163 263.87 142.74 263.87 142.25 263.87C141.772 263.87 141.429 263.87 141.221 263.87C141.025 263.858 140.841 263.827 140.67 263.778C140.511 263.717 140.382 263.649 140.284 263.576C140.186 263.49 140.1 263.404 140.027 263.319C139.953 263.233 139.904 263.159 139.88 263.098L139.843 263.025ZM150.589 254.664H151.415L151.434 261.996L150.589 261.977V254.664ZM155.293 262.198L155.311 254.664H156.083L156.119 262.198V262.216C156.119 262.694 155.979 263.092 155.697 263.411C155.427 263.717 155.029 263.864 154.502 263.852C154.147 263.852 153.725 263.852 153.235 263.852C152.757 263.852 152.414 263.852 152.206 263.852C152.01 263.852 151.826 263.821 151.654 263.76C151.495 263.698 151.366 263.631 151.268 263.558C151.17 263.472 151.085 263.386 151.011 263.3C150.938 263.215 150.889 263.147 150.864 263.098L150.809 263.006C152.598 263.019 153.798 263.025 154.411 263.025C154.999 263.025 155.293 262.78 155.293 262.29C155.293 262.253 155.293 262.222 155.293 262.198ZM164.658 259.221V259.129C164.707 259.129 164.792 259.129 164.915 259.129C165.037 259.129 165.148 259.129 165.246 259.129C165.797 259.129 166.072 258.792 166.072 258.119C166.085 257.482 166.085 256.869 166.072 256.281C166.036 255.803 165.742 255.564 165.19 255.564C164.59 255.577 163.604 255.589 162.232 255.601V263.87H161.387V254.664H162.195H162.232C163.665 254.664 164.676 254.664 165.264 254.664C165.791 254.664 166.189 254.817 166.458 255.123C166.728 255.417 166.869 255.809 166.881 256.299C166.893 256.312 166.899 256.324 166.899 256.336C166.899 256.348 166.899 256.361 166.899 256.373C166.899 256.912 166.899 257.5 166.899 258.137C166.899 259.264 166.428 259.876 165.484 259.974L167.359 263.87H166.348L164.658 260.287C164.658 259.932 164.658 259.576 164.658 259.221ZM182.649 262.014C182.649 260.115 182.643 258.21 182.631 256.299C182.606 255.809 182.312 255.564 181.749 255.564C181.148 255.564 180.162 255.571 178.79 255.583L178.809 263.006C180.205 263.006 181.204 263.006 181.804 263.006C182.037 263.006 182.233 262.921 182.392 262.749C182.563 262.578 182.649 262.363 182.649 262.106C182.649 262.081 182.649 262.051 182.649 262.014ZM183.494 262.106C183.494 262.13 183.494 262.155 183.494 262.179C183.507 262.669 183.372 263.074 183.09 263.392C182.821 263.698 182.416 263.852 181.877 263.852C181.289 263.852 180.266 263.852 178.809 263.852H177.927L177.945 254.664H178.735H178.79C180.224 254.664 181.234 254.664 181.822 254.664C182.361 254.664 182.772 254.817 183.053 255.123C183.335 255.43 183.482 255.834 183.494 256.336C183.494 258.259 183.494 260.183 183.494 262.106ZM192.041 259.221V259.129C192.09 259.129 192.175 259.129 192.298 259.129C192.42 259.129 192.531 259.129 192.629 259.129C193.18 259.129 193.455 258.792 193.455 258.119C193.468 257.482 193.468 256.869 193.455 256.281C193.419 255.803 193.125 255.564 192.573 255.564C191.973 255.577 190.987 255.589 189.615 255.601V263.87H188.77V254.664H189.578H189.615C191.048 254.664 192.059 254.664 192.647 254.664C193.174 254.664 193.572 254.817 193.841 255.123C194.111 255.417 194.252 255.809 194.264 256.299C194.276 256.312 194.282 256.324 194.282 256.336C194.282 256.348 194.282 256.361 194.282 256.373C194.282 256.912 194.282 257.5 194.282 258.137C194.282 259.264 193.811 259.876 192.867 259.974L194.742 263.87H193.731L192.041 260.287C192.041 259.932 192.041 259.576 192.041 259.221ZM200.003 254.664H205.056V255.491C203.574 255.491 202.085 255.491 200.591 255.491L200.609 258.89C201.663 258.89 202.716 258.89 203.77 258.89V259.717H200.609C200.609 260.82 200.609 261.922 200.609 263.025H205.074V263.852H200.609H200.591C200.579 263.852 200.566 263.852 200.554 263.852C200.493 263.852 200.401 263.852 200.279 263.852C200.156 263.852 200.064 263.852 200.003 263.852H199.727L199.746 254.664H200.003ZM207.932 260.783H208.042H208.355C208.637 260.783 208.943 260.783 209.274 260.783C209.604 260.783 209.911 260.783 210.192 260.783H210.854L210.615 261.683H211.57L210.854 263.87L209.88 263.888L210.615 261.683H210.505C210.456 261.683 210.407 261.683 210.358 261.683C210.309 261.683 210.254 261.683 210.192 261.683C209.911 261.683 209.604 261.683 209.274 261.683C209.102 261.683 208.937 261.683 208.777 261.683C208.63 261.683 208.49 261.683 208.355 261.683C208.281 261.683 208.22 261.683 208.171 261.683C208.122 261.683 208.079 261.683 208.042 261.683H207.932V260.783ZM210.854 260.783L212.838 254.682H213.647L216.642 263.87H215.686L213.243 256.336L211.773 260.801L210.854 260.783ZM228.106 254.682H228.951L228.933 263.87H228.143L228.106 256.41L225.68 260.673H225.331C225.307 260.673 225.282 260.673 225.258 260.673L222.832 256.41C222.832 258.896 222.826 261.389 222.814 263.888L221.987 263.87V254.682H222.832L225.46 259.295L228.106 254.701V254.682ZM234.168 263.006C235.956 263.006 237.157 263.006 237.769 263.006C238.357 263.019 238.651 262.78 238.651 262.29C238.651 262.253 238.651 262.222 238.651 262.198L238.614 260.452C238.614 260.403 238.614 260.348 238.614 260.287C238.602 259.858 238.376 259.619 237.935 259.57C237.91 259.57 237.886 259.57 237.861 259.57C237.653 259.57 237.273 259.57 236.722 259.57C236.171 259.558 235.785 259.558 235.564 259.57C235.05 259.57 234.658 259.423 234.388 259.129C234.119 258.835 233.978 258.462 233.966 258.008C233.953 257.984 233.947 257.953 233.947 257.916V257.898C233.947 257.408 233.947 256.912 233.947 256.41C233.935 256.385 233.929 256.355 233.929 256.318C233.929 255.84 234.064 255.448 234.333 255.142C234.615 254.823 235.019 254.664 235.546 254.664C235.766 254.664 236.152 254.664 236.703 254.664C237.255 254.664 237.634 254.664 237.843 254.664C238.039 254.664 238.216 254.695 238.376 254.756C238.547 254.805 238.682 254.872 238.78 254.958C238.878 255.044 238.957 255.13 239.019 255.215C239.092 255.301 239.147 255.368 239.184 255.417L239.221 255.509C237.457 255.509 236.262 255.509 235.638 255.509C235.38 255.509 235.172 255.571 235.013 255.693C234.854 255.816 234.774 255.999 234.774 256.244C234.774 256.281 234.774 256.318 234.774 256.355L234.792 257.916C234.792 257.941 234.792 257.965 234.792 257.99C234.805 258.48 235.093 258.725 235.656 258.725C235.766 258.725 235.895 258.731 236.042 258.743C236.948 258.731 237.536 258.725 237.806 258.725C238.308 258.713 238.694 258.847 238.964 259.129C239.245 259.399 239.405 259.754 239.441 260.195L239.478 262.198V262.216C239.478 262.694 239.337 263.092 239.055 263.411C238.786 263.717 238.382 263.864 237.843 263.852C237.487 263.852 237.065 263.852 236.575 263.852C236.097 263.852 235.754 263.845 235.546 263.833C235.362 263.833 235.184 263.809 235.013 263.76C234.854 263.698 234.719 263.631 234.609 263.558C234.511 263.472 234.425 263.386 234.351 263.3C234.29 263.215 234.241 263.147 234.204 263.098L234.168 263.006Z" fill="black"/>
<path d="M55.875 213.211H61.95V231.082C61.95 232.162 62.3213 233.09 63.0638 233.866C63.84 234.609 64.7681 234.98 65.8481 234.98H85.1869C86.2669 234.98 87.1781 234.609 87.9206 233.866C88.6631 233.09 89.0344 232.162 89.0344 231.082V213.211H95.16V231.082C95.16 232.466 94.89 233.765 94.35 234.98C93.8438 236.195 93.135 237.258 92.2238 238.169C91.3125 239.047 90.2494 239.756 89.0344 240.296C87.8194 240.802 86.5369 241.055 85.1869 241.055H65.8481C64.4644 241.055 63.165 240.802 61.95 240.296C60.735 239.756 59.6719 239.047 58.7606 238.169C57.8831 237.258 57.1744 236.195 56.6344 234.98C56.1281 233.765 55.875 232.466 55.875 231.082V213.211ZM108.019 221.109H121.536C122.886 221.109 124.169 221.379 125.384 221.919C126.599 222.425 127.662 223.134 128.573 224.045C129.484 224.922 130.193 225.969 130.699 227.184C131.239 228.399 131.509 229.698 131.509 231.082V241.055H125.384V231.082C125.384 230.002 125.012 229.091 124.27 228.348C123.527 227.572 122.616 227.184 121.536 227.184H108.019C106.939 227.184 106.011 227.572 105.235 228.348C104.492 229.091 104.121 230.002 104.121 231.082V241.055H98.046V231.082C98.046 229.698 98.2991 228.399 98.8054 227.184C99.3454 225.969 100.054 224.922 100.932 224.045C101.843 223.134 102.906 222.425 104.121 221.919C105.336 221.379 106.635 221.109 108.019 221.109ZM140.458 218.527H134.383V214.983H140.458V218.527ZM134.383 221.109H140.458V241.055H134.383V221.109ZM143.332 235.031H165.708L155.684 222.577C154.942 221.632 154.52 220.619 154.419 219.539C154.351 218.459 154.537 217.464 154.975 216.552C155.448 215.607 156.123 214.831 157 214.224C157.912 213.582 158.975 213.262 160.19 213.262H182.515V219.286H160.747L170.72 231.74C171.462 232.685 171.867 233.697 171.935 234.777C172.036 235.857 171.867 236.87 171.429 237.815C170.99 238.726 170.315 239.502 169.404 240.144C168.526 240.751 167.48 241.055 166.265 241.055H143.332V235.031ZM205.588 241.055H189.692C188.308 241.055 187.008 240.802 185.793 240.296C184.578 239.756 183.515 239.047 182.604 238.169C181.727 237.258 181.018 236.195 180.478 234.98C179.972 233.765 179.718 232.466 179.718 231.082C179.718 229.698 179.972 228.399 180.478 227.184C181.018 225.969 181.727 224.922 182.604 224.045C183.515 223.134 184.578 222.425 185.793 221.919C187.008 221.379 188.308 221.109 189.692 221.109H205.335C206.718 221.109 208.018 221.379 209.233 221.919C210.448 222.425 211.494 223.134 212.372 224.045C213.283 224.922 213.992 225.969 214.498 227.184C215.038 228.399 215.308 229.698 215.308 231.082V241.055H209.233V231.082C209.233 230.002 208.845 229.091 208.068 228.348C207.326 227.572 206.415 227.184 205.335 227.184H189.692C188.612 227.184 187.683 227.572 186.907 228.348C186.165 229.091 185.793 230.002 185.793 231.082C185.793 232.162 186.165 233.09 186.907 233.866C187.683 234.609 188.612 234.98 189.692 234.98H205.588V241.055ZM223.218 221.109H239.368V227.184H223.218V231.082C223.218 232.162 223.59 233.09 224.332 233.866C225.108 234.609 226.036 234.98 227.116 234.98H242.506V241.055H227.116C225.733 241.055 224.433 240.802 223.218 240.296C222.003 239.756 220.94 239.047 220.029 238.169C219.151 237.258 218.443 236.195 217.903 234.98C217.396 233.765 217.143 232.466 217.143 231.082V214.983H223.218V221.109Z" fill="#001D3C"/>
<path d="M244.05 114.574C244.05 70.47 207.442 34.2862 163.342 34.7775C124.17 35.2162 91.7812 63.8812 85.545 101.389L53.1412 118.41C52.9942 118.488 52.8756 118.61 52.8021 118.759C52.7286 118.909 52.704 119.077 52.7318 119.241C52.7596 119.405 52.8384 119.556 52.957 119.673C53.0757 119.79 53.228 119.866 53.3925 119.891L85.0725 124.534C86.4617 135.694 90.2083 146.432 96.0637 156.034L71.9625 199.564C71.8813 199.71 71.8488 199.878 71.8697 200.044C71.8905 200.21 71.9637 200.365 72.0786 200.487C72.1935 200.608 72.3442 200.69 72.5087 200.721C72.6732 200.751 72.8431 200.728 72.9937 200.655L117.48 179.228C125.3 184.892 134.085 189.086 143.407 191.603L143.25 221.79C143.248 221.957 143.299 222.119 143.396 222.255C143.492 222.391 143.629 222.493 143.787 222.546C143.945 222.598 144.116 222.6 144.275 222.55C144.434 222.5 144.572 222.4 144.671 222.266L165.544 194.355C209.006 193.673 244.05 158.216 244.05 114.574Z" fill="#001D3C"/>
<path d="M200.407 73.92L197.149 72.54L200.52 71.5237L202.226 64.4587L203.464 71.6362L206.726 72.8325L203.438 74.0362L201.938 81.2025L200.407 73.92Z" fill="white"/>
<path d="M133.669 170.479L130.406 169.102L133.781 168.086L135.487 161.021L136.725 168.199L139.984 169.395L136.699 170.599L135.195 177.765L133.669 170.479Z" fill="white"/>
<path d="M151.789 58.2C152.949 58.2 153.889 57.2598 153.889 56.1C153.889 54.9402 152.949 54 151.789 54C150.629 54 149.689 54.9402 149.689 56.1C149.689 57.2598 150.629 58.2 151.789 58.2Z" fill="#32B7E0"/>
<path d="M210.862 158.921C210.862 159.337 210.986 159.744 211.217 160.09C211.448 160.436 211.777 160.706 212.161 160.865C212.546 161.024 212.969 161.066 213.377 160.985C213.785 160.903 214.16 160.703 214.454 160.409C214.748 160.115 214.948 159.74 215.03 159.332C215.111 158.924 215.069 158.501 214.91 158.116C214.751 157.732 214.481 157.403 214.135 157.172C213.789 156.941 213.382 156.818 212.966 156.818C212.408 156.818 211.873 157.039 211.479 157.434C211.084 157.828 210.862 158.363 210.862 158.921Z" fill="#32B7E0"/>
<path d="M222.128 145.155C222.128 145.571 222.251 145.978 222.482 146.324C222.713 146.67 223.042 146.939 223.426 147.099C223.811 147.258 224.234 147.3 224.642 147.218C225.05 147.137 225.425 146.937 225.719 146.643C226.013 146.348 226.213 145.974 226.295 145.565C226.376 145.157 226.334 144.734 226.175 144.35C226.016 143.966 225.746 143.637 225.4 143.406C225.054 143.175 224.647 143.051 224.231 143.051C223.673 143.051 223.138 143.273 222.744 143.667C222.349 144.062 222.128 144.597 222.128 145.155Z" fill="#FEFEFE"/>
<path d="M112.354 129.045C112.353 129.461 112.476 129.869 112.707 130.215C112.938 130.562 113.266 130.832 113.651 130.992C114.035 131.151 114.459 131.193 114.867 131.112C115.275 131.031 115.651 130.831 115.945 130.536C116.24 130.242 116.44 129.867 116.521 129.458C116.602 129.05 116.56 128.627 116.4 128.242C116.241 127.857 115.97 127.529 115.624 127.298C115.277 127.067 114.87 126.944 114.454 126.945C113.897 126.946 113.364 127.168 112.97 127.561C112.576 127.955 112.355 128.488 112.354 129.045Z" fill="#FEFEFE"/>
<path d="M114.469 86.25C114.405 86.3133 114.33 86.3634 114.247 86.3975C114.164 86.4316 114.075 86.449 113.985 86.4487H104.092C103.911 86.4487 103.738 86.3768 103.61 86.2488C103.482 86.1208 103.41 85.9473 103.41 85.7662C103.41 85.5852 103.482 85.4116 103.61 85.2836C103.738 85.1556 103.911 85.0837 104.092 85.0837H114C114.181 85.0847 114.354 85.1569 114.482 85.2847C114.609 85.4125 114.682 85.5855 114.683 85.7662C114.678 85.9493 114.601 86.1231 114.469 86.25Z" fill="#01A4CB"/>
<path d="M109.519 91.185C109.423 91.2796 109.302 91.3438 109.17 91.3696C109.038 91.3954 108.901 91.3816 108.777 91.3299C108.652 91.2782 108.546 91.191 108.471 91.0791C108.397 90.9672 108.357 90.8358 108.356 90.7012V80.8087C108.356 80.6277 108.428 80.4541 108.556 80.3261C108.684 80.1981 108.858 80.1262 109.039 80.1262C109.22 80.1262 109.393 80.1981 109.521 80.3261C109.649 80.4541 109.721 80.6277 109.721 80.8087V90.7012C109.72 90.8829 109.648 91.0569 109.519 91.185Z" fill="#01A4CB"/>
<path d="M222.75 125.25C222.661 125.25 222.572 125.232 222.49 125.197C222.407 125.162 222.332 125.112 222.27 125.048L215.25 118.069C215.134 117.939 215.071 117.769 215.076 117.595C215.081 117.42 215.152 117.254 215.276 117.131C215.399 117.007 215.565 116.936 215.74 116.931C215.914 116.926 216.084 116.989 216.214 117.105L223.211 124.099C223.339 124.227 223.41 124.4 223.41 124.581C223.41 124.761 223.339 124.935 223.211 125.063C223.087 125.182 222.922 125.249 222.75 125.25Z" fill="#FCBB03"/>
<path d="M215.749 125.25C215.614 125.249 215.483 125.208 215.372 125.133C215.26 125.057 215.173 124.951 215.122 124.827C215.07 124.702 215.056 124.566 215.082 124.434C215.107 124.302 215.171 124.18 215.265 124.084L222.262 117.09C222.392 116.974 222.562 116.911 222.737 116.916C222.911 116.921 223.077 116.992 223.201 117.116C223.324 117.239 223.395 117.405 223.4 117.58C223.405 117.754 223.343 117.924 223.226 118.054L216.229 125.063C216.165 125.124 216.09 125.172 216.007 125.204C215.925 125.236 215.837 125.252 215.749 125.25Z" fill="#FCBB03"/>
<path d="M154.963 120.748L117.993 154.365C117.916 154.435 117.91 154.553 117.98 154.63L118.406 155.099C118.476 155.175 118.595 155.181 118.671 155.111L155.641 121.495C155.718 121.425 155.724 121.306 155.654 121.23L155.228 120.761C155.158 120.684 155.039 120.679 154.963 120.748Z" fill="white"/>
<path d="M178.431 136.423L160.984 173.317C160.96 173.368 160.981 173.428 161.032 173.452L161.761 173.797C161.811 173.82 161.872 173.799 161.896 173.748L179.343 136.855C179.367 136.804 179.345 136.744 179.295 136.72L178.566 136.375C178.515 136.351 178.455 136.373 178.431 136.423Z" fill="white"/>
<path d="M138.526 96.8143L99.7691 106.298C99.6685 106.323 99.6069 106.424 99.6315 106.525L99.7821 107.14C99.8068 107.241 99.9083 107.302 100.009 107.278L138.765 97.7941C138.866 97.7695 138.928 97.668 138.903 97.5674L138.752 96.9519C138.728 96.8513 138.626 96.7897 138.526 96.8143Z" fill="white"/>
<path d="M103.406 107.25C103.406 107.877 103.22 108.489 102.872 109.01C102.524 109.532 102.029 109.938 101.45 110.178C100.871 110.417 100.234 110.48 99.6193 110.358C99.0046 110.236 98.44 109.934 97.9968 109.491C97.5537 109.047 97.2519 108.483 97.1296 107.868C97.0074 107.254 97.0701 106.616 97.31 106.037C97.5498 105.458 97.9559 104.963 98.477 104.615C98.9981 104.267 99.6108 104.081 100.237 104.081C101.078 104.081 101.884 104.415 102.478 105.009C103.072 105.604 103.406 106.41 103.406 107.25Z" fill="#FCBB03"/>
<path d="M165.338 172.5C165.338 173.127 165.152 173.739 164.803 174.26C164.455 174.782 163.96 175.188 163.381 175.428C162.802 175.667 162.165 175.73 161.551 175.608C160.936 175.486 160.371 175.184 159.928 174.741C159.485 174.297 159.183 173.733 159.061 173.118C158.939 172.504 159.001 171.866 159.241 171.287C159.481 170.708 159.887 170.213 160.408 169.865C160.929 169.517 161.542 169.331 162.169 169.331C163.009 169.331 163.815 169.665 164.409 170.259C165.004 170.854 165.338 171.66 165.338 172.5Z" fill="#FCBB03"/>
<path d="M118.71 157.957C120.46 157.957 121.879 156.539 121.879 154.789C121.879 153.039 120.46 151.62 118.71 151.62C116.96 151.62 115.541 153.039 115.541 154.789C115.541 156.539 116.96 157.957 118.71 157.957Z" fill="#FCBB03"/>
<path d="M137.317 136.976L130.53 98.3437L153.229 75.6337L160.02 114.262L137.317 136.976Z" fill="url(#paint0_linear)"/>
<path d="M137.318 136.976L175.954 143.741L198.649 121.031L160.02 114.263L137.318 136.976Z" fill="url(#paint1_linear)"/>
<path d="M191.887 82.395L153.311 75.5513L160.17 114.094L198.731 120.949L191.887 82.395Z" fill="url(#paint2_linear)"/>
<defs>
<linearGradient id="paint0_linear" x1="133.867" y1="94.9275" x2="156.581" y2="117.626" gradientUnits="userSpaceOnUse">
<stop stop-color="#C8D3D7"/>
<stop offset="0.1" stop-color="#BECFD7"/>
<stop offset="0.28" stop-color="#A2C5D6"/>
<stop offset="0.51" stop-color="#75B5D4"/>
<stop offset="0.78" stop-color="#389FD3"/>
<stop offset="1" stop-color="#028CD1"/>
</linearGradient>
<linearGradient id="paint1_linear" x1="-30909.8" y1="-61120.2" x2="-29477.4" y2="-65523.2" gradientUnits="userSpaceOnUse">
<stop stop-color="#C8D3D7"/>
<stop offset="0.1" stop-color="#BECFD7"/>
<stop offset="0.28" stop-color="#A2C5D6"/>
<stop offset="0.51" stop-color="#75B5D4"/>
<stop offset="0.78" stop-color="#389FD3"/>
<stop offset="1" stop-color="#028CD1"/>
</linearGradient>
<linearGradient id="paint2_linear" x1="52038.5" y1="-85138.2" x2="56186" y2="-87027.7" gradientUnits="userSpaceOnUse">
<stop stop-color="#C8D3D7"/>
<stop offset="0.1" stop-color="#BECFD7"/>
<stop offset="0.28" stop-color="#A2C5D6"/>
<stop offset="0.51" stop-color="#75B5D4"/>
<stop offset="0.78" stop-color="#389FD3"/>
<stop offset="1" stop-color="#028CD1"/>
</linearGradient>
</defs>
</svg>
